<?xml version="1.0" encoding="UTF-8"?>
<!DOCTYPE svg PUBLIC "-//W3C//DTD SVG 1.1//EN" "http://www.w3.org/Graphics/SVG/1.1/DTD/svg11.dtd">
<!-- Creator: CorelDRAW -->
<svg xmlns="http://www.w3.org/2000/svg" xml:space="preserve" width="10in" height="10in" version="1.1" style="shape-rendering:geometricPrecision; text-rendering:geometricPrecision; image-rendering:optimizeQuality; fill-rule:evenodd; clip-rule:evenodd"
viewBox="0 0 10000 10000"
 xmlns:xlink="http://www.w3.org/1999/xlink"
 xmlns:xodm="http://www.corel.com/coreldraw/odm/2003">
 <defs>
  <style type="text/css">
   <![CDATA[
    .fil0 {fill:none}
    .fil12 {fill:#192832}
    .fil11 {fill:#201F1F}
    .fil14 {fill:#3F3436}
    .fil6 {fill:#464041}
    .fil13 {fill:#C7773D}
    .fil3 {fill:#DD8444}
    .fil1 {fill:#EAD2B8}
    .fil8 {fill:#FBFBFB}
    .fil2 {fill:white}
    .fil5 {fill:white}
    .fil10 {fill:#201F1F;fill-rule:nonzero}
    .fil9 {fill:#464041;fill-rule:nonzero}
    .fil7 {fill:#561102;fill-rule:nonzero}
    .fil4 {fill:white;fill-rule:nonzero}
   ]]>
  </style>
 </defs>
 <g id="Layer_x0020_1">
  <metadata id="CorelCorpID_0Corel-Layer"/>
  <g id="_1106987592">
   <rect class="fil0" width="10000" height="10000"/>
   <g>
    <path class="fil1" d="M9685.5 9644.44c0,0 1211.85,-2049.68 -1122.09,-2528.43 -2333.94,-478.76 -2214.26,-448.84 -2663.09,-1406.35 -448.83,-957.51 -2214.25,-1929.99 -4323.77,-718.13 -2109.52,1211.85 -1406.36,4239.61 -1331.55,4628.61l9440.5 24.31z"/>
    <path class="fil2" d="M2845.84 6560.28l0 0zm5544.11 0l0 0zm-226.93 -3673.23l-5322.59 0 -29.67 0 0 3588.96c0,32.79 13.45,62.64 35.01,84.34 21.63,21.6 51.5,35.01 84.34,35.01l5375.58 0c32.79,0 62.63,-13.45 84.33,-35.01 21.6,-21.63 35.01,-51.5 35.01,-84.34l0 -3588.96 -262.01 0z"/>
    <rect class="fil3" x="3021.52" y="3083.23" width="5192.75" height="442.17" rx="109.63" ry="109.63"/>
    <rect class="fil2" x="3171.77" y="3210.57" width="4040.29" height="185.8" rx="314.72" ry="285.84"/>
    <ellipse class="fil2" cx="7971.91" cy="3304.32" rx="92.13" ry="94.01"/>
    <ellipse class="fil2" cx="7686.08" cy="3304.32" rx="92.12" ry="94.01"/>
    <ellipse class="fil2" cx="7400.25" cy="3304.32" rx="92.12" ry="94"/>
    <path class="fil3" d="M2810.76 6476.01l0 -3588.96 29.67 0 5322.59 0 262.01 0 0 3588.96c0,32.84 -13.41,62.7 -35.01,84.34 -10.44,10.37 -22.78,18.88 -36.42,24.9 -14.69,6.49 -30.9,10.11 -47.91,10.11l-5375.58 0c-32.85,0 -62.71,-13.41 -84.35,-35.01 -5.78,-5.81 -10.97,-12.21 -15.48,-19.09 -12.33,-18.81 -19.54,-41.24 -19.54,-65.24zm5494.94 -3874.79l-5375.58 0c-105.83,0 -192.46,86.62 -192.46,192.44l0 3682.34c0,105.83 86.63,192.45 192.46,192.45l5375.58 0c105.81,0 192.44,-86.63 192.44,-192.45l0 -3682.34c0,-105.81 -86.63,-192.44 -192.44,-192.44z"/>
    <path class="fil4" d="M4315.27 4698.05l968.33 0c14.68,0 28.04,6.01 37.7,15.67 9.66,9.66 15.67,23.03 15.67,37.7l0 590.97c0,14.68 -6.01,28.04 -15.67,37.7 -9.66,9.66 -23.02,15.67 -37.7,15.67l-968.33 0c-14.69,0 -28.04,-6.01 -37.7,-15.67 -9.66,-9.66 -15.67,-23.02 -15.67,-37.7l0 -590.97c0,-14.68 6.01,-28.04 15.67,-37.7 9.67,-9.66 23.02,-15.67 37.7,-15.67zm968.33 30.51l-968.33 0c-6.28,0 -12.01,2.58 -16.15,6.72 -4.13,4.13 -6.72,9.87 -6.72,16.15l0 590.97c0,6.28 2.58,12 6.72,16.14 4.13,4.13 9.86,6.72 16.15,6.72l968.33 0c6.28,0 12.01,-2.58 16.15,-6.72 4.13,-4.13 6.72,-9.86 6.72,-16.14l0 -590.97c0,-6.28 -2.58,-12.01 -6.72,-16.15 -4.13,-4.13 -9.87,-6.72 -16.15,-6.72z"/>
    <path class="fil5" d="M5234.31 5280.14c-11.58,-60.05 -53.29,-292.42 -96.6,-296.44 -113.59,-10.57 -91.25,81.58 -164.18,89.11 -144.93,14.98 -65.97,-81.89 -187.61,-127.15 -119.06,-44.3 -98.27,236.96 -271.9,229.22 -73.59,-3.63 -123.87,113.32 -119.74,120.06l826.46 -0.76c20.28,-0.02 17.07,4.18 13.56,-14.04z"/>
    <ellipse class="fil5" cx="4487.29" cy="4907.97" rx="87.44" ry="89.49"/>
    <rect class="fil2" x="4261.89" y="5538.71" width="537.54" height="37.44" rx="41.87" ry="57.59"/>
    <rect class="fil2" x="4261.89" y="5641.64" width="791.85" height="37.44" rx="61.68" ry="57.59"/>
    <rect class="fil2" x="4261.89" y="5744.56" width="1075.08" height="37.44" rx="83.74" ry="57.59"/>
    <rect class="fil2" x="4261.89" y="5847.49" width="1075.08" height="37.44" rx="83.74" ry="57.59"/>
    <rect class="fil2" x="4261.89" y="5950.42" width="1075.08" height="37.44" rx="83.74" ry="57.59"/>
    <rect class="fil2" x="4261.89" y="6053.35" width="1075.08" height="37.44" rx="83.74" ry="57.59"/>
    <rect class="fil3" x="3021.53" y="5851.14" width="2315.44" height="407.98" rx="234.86" ry="41.38"/>
    <rect class="fil3" x="3021.53" y="3861.64" width="1097.93" height="761.47" rx="111.37" ry="77.24"/>
    <ellipse class="fil5" cx="3185.21" cy="4027.38" rx="87.44" ry="89.49"/>
    <rect class="fil5" x="3097.77" y="4242.37" width="474.62" height="37.44" rx="36.97" ry="57.59"/>
    <rect class="fil5" x="3097.77" y="4358.65" width="949.24" height="37.44" rx="73.94" ry="57.59"/>
    <rect class="fil5" x="3097.77" y="4474.92" width="949.24" height="37.44" rx="73.94" ry="57.59"/>
    <rect class="fil3" x="5598.65" y="3861.64" width="413.04" height="407.99" rx="38.93" ry="38.93"/>
    <rect class="fil3" x="5598.65" y="4524.8" width="413.04" height="407.99" rx="38.93" ry="38.93"/>
    <g>
     <rect class="fil6" x="6151.21" y="3861.64" width="937.35" height="94.15" rx="9.73" ry="19.47"/>
     <rect class="fil6" x="6151.21" y="4175.47" width="1874.7" height="94.15" rx="19.47" ry="19.47"/>
     <rect class="fil6" x="6151.21" y="4018.56" width="1367.04" height="94.15" rx="14.2" ry="19.47"/>
     <rect class="fil6" x="6151.21" y="4524.8" width="937.35" height="94.15" rx="9.73" ry="19.47"/>
     <rect class="fil6" x="6151.21" y="4838.64" width="1874.7" height="94.15" rx="19.47" ry="19.47"/>
     <rect class="fil6" x="6151.21" y="4681.72" width="1367.04" height="94.15" rx="14.2" ry="19.47"/>
    </g>
    <rect class="fil3" x="3021.53" y="4856.39" width="1097.93" height="761.47" rx="111.37" ry="77.24"/>
    <ellipse class="fil5" cx="3185.21" cy="5022.13" rx="87.44" ry="89.49"/>
    <rect class="fil5" x="3097.77" y="5237.12" width="474.62" height="37.44" rx="36.97" ry="57.59"/>
    <rect class="fil5" x="3097.77" y="5353.4" width="949.24" height="37.44" rx="73.94" ry="57.59"/>
    <rect class="fil5" x="3097.77" y="5469.67" width="949.24" height="37.44" rx="73.94" ry="57.59"/>
    <rect class="fil3" x="4239.05" y="3861.64" width="1097.93" height="761.47" rx="111.37" ry="77.24"/>
    <ellipse class="fil5" cx="4402.73" cy="4027.38" rx="87.44" ry="89.49"/>
    <rect class="fil5" x="4315.29" y="4242.37" width="474.62" height="37.44" rx="36.97" ry="57.59"/>
    <rect class="fil5" x="4315.29" y="4358.65" width="949.24" height="37.44" rx="73.94" ry="57.59"/>
    <rect class="fil5" x="4315.29" y="4474.92" width="949.24" height="37.44" rx="73.94" ry="57.59"/>
    <rect class="fil3" x="4239.05" y="4856.39" width="1097.93" height="761.47" rx="111.37" ry="77.24"/>
    <ellipse class="fil5" cx="4402.73" cy="5022.13" rx="87.44" ry="89.49"/>
    <rect class="fil5" x="4315.29" y="5237.12" width="474.62" height="37.44" rx="36.97" ry="57.59"/>
    <rect class="fil5" x="4315.29" y="5353.4" width="949.24" height="37.44" rx="73.94" ry="57.59"/>
    <rect class="fil5" x="4315.29" y="5469.67" width="949.24" height="37.44" rx="73.94" ry="57.59"/>
    <path class="fil5" d="M5709.94 5247.5l3835.19 0c55.44,0 100.79,45.35 100.79,100.79l0 957.54c0,55.44 -45.35,100.79 -100.79,100.79l-3835.19 0c-55.43,0 -100.79,-45.35 -100.79,-100.79l0 -957.54c0,-55.44 45.36,-100.79 100.79,-100.79z"/>
    <path class="fil6" d="M5709.94 5237l3835.19 0c30.62,0 58.44,12.52 78.61,32.68 20.17,20.17 32.68,47.99 32.68,78.61l0 957.54c0,30.61 -12.52,58.44 -32.68,78.61 -20.17,20.16 -47.99,32.68 -78.61,32.68l-3835.19 0c-30.61,0 -58.44,-12.52 -78.61,-32.68 -20.17,-20.17 -32.69,-48 -32.69,-78.61l0 -957.54c0,-30.62 12.52,-58.44 32.69,-78.61 20.17,-20.17 47.99,-32.68 78.61,-32.68zm3835.19 21l-3835.19 0c-24.82,0 -47.39,10.16 -63.76,26.53 -16.37,16.37 -26.53,38.94 -26.53,63.76l0 957.54c0,24.82 10.16,47.39 26.53,63.76 16.37,16.37 38.94,26.53 63.76,26.53l3835.19 0c24.82,0 47.39,-10.16 63.76,-26.53 16.37,-16.37 26.53,-38.94 26.53,-63.76l0 -957.54c0,-24.82 -10.16,-47.39 -26.53,-63.76 -16.37,-16.37 -38.94,-26.53 -63.76,-26.53z"/>
    <path class="fil6" d="M6932.06 5546.52c-11.6,0 -21,9.4 -21,21 0,11.6 9.4,21 21,21l2343.44 0c11.6,0 21,-9.4 21,-21 0,-11.59 -9.4,-21 -21,-21l-2343.44 0z"/>
    <path class="fil3" d="M6055.17 5567.51l367.9 0c41.58,0 75.59,34.02 75.59,75.59l0 367.9c0,41.58 -34.02,75.59 -75.59,75.59l-367.9 0c-41.57,0 -75.59,-34.02 -75.59,-75.59l0 -367.9c0,-41.58 34.02,-75.59 75.59,-75.59z"/>
    <path class="fil6" d="M6932.06 5806.06c-11.6,0 -21,9.4 -21,21 0,11.59 9.4,21 21,21l2343.44 0c11.6,0 21,-9.4 21,-21 0,-11.6 -9.4,-21 -21,-21l-2343.44 0z"/>
    <path class="fil6" d="M6932.06 6065.6c-11.6,0 -21,9.4 -21,21 0,11.6 9.4,21 21,21l2343.44 0c11.6,0 21,-9.4 21,-21 0,-11.59 -9.4,-21 -21,-21l-2343.44 0z"/>
    <path class="fil5" d="M5709.94 7565.74l3835.19 0c55.44,0 100.79,-45.35 100.79,-100.79l0 -957.54c0,-55.44 -45.35,-100.8 -100.79,-100.8l-3835.19 0c-55.43,0 -100.79,45.36 -100.79,100.8l0 957.54c0,55.44 45.36,100.79 100.79,100.79z"/>
    <path class="fil6" d="M5709.94 7555.24l3835.19 0c24.82,0 47.39,-10.16 63.76,-26.53 16.37,-16.37 26.53,-38.94 26.53,-63.76l0 -957.54c0,-24.82 -10.16,-47.39 -26.53,-63.76 -16.37,-16.37 -38.94,-26.53 -63.76,-26.53l-3835.19 0c-24.82,0 -47.39,10.16 -63.76,26.53 -16.37,16.37 -26.53,38.94 -26.53,63.76l0 957.54c0,24.82 10.16,47.39 26.53,63.76 16.37,16.37 38.94,26.53 63.76,26.53zm3835.19 21l-3835.19 0c-30.61,0 -58.44,-12.52 -78.61,-32.69 -20.17,-20.17 -32.69,-47.99 -32.69,-78.61l0 -957.54c0,-30.62 12.52,-58.44 32.69,-78.61 20.17,-20.17 47.99,-32.69 78.61,-32.69l3835.19 0c30.62,0 58.44,12.52 78.61,32.69 20.17,20.17 32.68,47.99 32.68,78.61l0 957.54c0,30.62 -12.52,58.44 -32.68,78.61 -20.17,20.17 -47.99,32.69 -78.61,32.69z"/>
    <path class="fil6" d="M6932.06 7224.72c-11.6,0 -21,9.4 -21,21 0,11.6 9.4,21 21,21l2343.44 0c11.6,0 21,-9.4 21,-21 0,-11.59 -9.4,-21 -21,-21l-2343.44 0z"/>
    <path class="fil3" d="M6055.17 7245.72l367.9 0c41.58,0 75.59,-34.01 75.59,-75.59l0 -367.9c0,-41.58 -34.02,-75.59 -75.59,-75.59l-367.9 0c-41.57,0 -75.59,34.02 -75.59,75.59l0 367.9c0,41.58 34.02,75.59 75.59,75.59z"/>
    <path class="fil6" d="M6932.06 6965.18c-11.6,0 -21,9.4 -21,21 0,11.6 9.4,21 21,21l2343.44 0c11.6,0 21,-9.4 21,-21 0,-11.6 -9.4,-21 -21,-21l-2343.44 0z"/>
    <path class="fil6" d="M6932.06 6705.65c-11.6,0 -21,9.4 -21,21 0,11.6 9.4,21 21,21l2343.44 0c11.6,0 21,-9.4 21,-21 0,-11.59 -9.4,-21 -21,-21l-2343.44 0z"/>
    <path class="fil5" d="M5709.94 7565.74l3835.19 0c55.44,0 100.79,45.35 100.79,100.79l0 957.54c0,55.43 -45.35,100.8 -100.79,100.8l-3835.19 0c-55.43,0 -100.79,-45.36 -100.79,-100.8l0 -957.54c0,-55.43 45.36,-100.79 100.79,-100.79z"/>
    <path class="fil7" d="M5709.94 7555.24l3835.19 0c30.62,0 58.44,12.52 78.61,32.68 20.17,20.17 32.68,47.99 32.68,78.61l0 957.54c0,30.61 -12.52,58.44 -32.68,78.61 -20.17,20.17 -47.99,32.68 -78.61,32.68l-3835.19 0c-30.61,0 -58.44,-12.52 -78.61,-32.68 -20.17,-20.17 -32.69,-48 -32.69,-78.61l0 -957.54c0,-30.61 12.52,-58.44 32.69,-78.61 20.17,-20.17 47.99,-32.68 78.61,-32.68zm3835.19 21l-3835.19 0c-24.82,0 -47.39,10.16 -63.76,26.53 -16.37,16.37 -26.53,38.94 -26.53,63.76l0 957.54c0,24.82 10.16,47.39 26.53,63.76 16.37,16.37 38.94,26.54 63.76,26.54l3835.19 0c24.82,0 47.39,-10.17 63.76,-26.54 16.37,-16.37 26.53,-38.94 26.53,-63.76l0 -957.54c0,-24.82 -10.16,-47.39 -26.53,-63.76 -16.37,-16.37 -38.94,-26.53 -63.76,-26.53z"/>
    <path class="fil6" d="M6932.06 7864.77c-11.6,0 -21,9.4 -21,21 0,11.59 9.4,21 21,21l2343.44 0c11.6,0 21,-9.4 21,-21 0,-11.6 -9.4,-21 -21,-21l-2343.44 0z"/>
    <path class="fil3" d="M6055.17 7885.76l367.9 0c41.58,0 75.59,34.02 75.59,75.59l0 367.9c0,41.58 -34.02,75.59 -75.59,75.59l-367.9 0c-41.57,0 -75.59,-34.02 -75.59,-75.59l0 -367.9c0,-41.58 34.02,-75.59 75.59,-75.59z"/>
    <path class="fil6" d="M6932.06 8124.31c-11.6,0 -21,9.4 -21,21 0,11.6 9.4,21 21,21l2343.44 0c11.6,0 21,-9.4 21,-21 0,-11.59 -9.4,-21 -21,-21l-2343.44 0z"/>
    <path class="fil6" d="M6932.06 8383.85c-11.6,0 -21,9.4 -21,21 0,11.6 9.4,21 21,21l2343.44 0c11.6,0 21,-9.4 21,-21 0,-11.59 -9.4,-21 -21,-21l-2343.44 0z"/>
    <g>
     <path class="fil8" d="M2252.26 5345.22c0.39,12.71 -96.99,277.76 -110.04,316.89 -39.91,119.72 -194.21,-225.76 -219.15,-268.96 -33.2,-89.66 -122.85,-99.61 -122.85,-99.61l9.96 328.73c0,0 152.74,255.68 275.6,365.25 192.2,171.42 256.17,-568.57 278.84,-585.3 21.83,-16.39 47.04,-33.56 75.82,-46.13 23.28,-10.16 47.48,-13.49 69.07,-26.67 86.22,-52.64 52.61,-186.44 19,-186.44 -28.5,0 -38.27,83.64 -88.81,98.3 -32.06,9.29 -89.16,-3.65 -70.39,-49.61 22.11,-54.12 -122.59,-21.87 -117.06,153.56z"/>
     <path class="fil9" d="M2265.19 5319.96c0.32,10.46 -48.92,147.65 -84.1,245.64 -15.79,43.97 -28.73,80.02 -32.96,92.72 -9.14,27.41 -23.74,35.17 -41.7,29.19 -54.21,-18.07 -139.24,-188.25 -181.22,-272.29l0.02 -0.01c-9.63,-19.26 -16.95,-33.92 -21.07,-41.04l-0.47 -0.99c-28.1,-75.85 -95.56,-95.74 -117.87,-100.33l10.29 339.39c12.47,20.71 165.88,273.62 290.35,384.63 42.44,37.85 78.46,30.54 109.02,-3.74 79.24,-88.85 125.14,-349.73 151.78,-501.1 11.49,-65.27 19.49,-110.72 27.06,-116.45l-0.01 -0.01c11.65,-8.75 24.26,-17.74 37.9,-26.28 13.68,-8.57 28.29,-16.62 43.8,-23.39 10.25,-4.47 20.44,-7.67 30.52,-10.84 14.55,-4.56 28.93,-9.08 42,-17.06 40.76,-24.89 54.88,-68.07 54.88,-106.84 0,-13.37 -1.66,-26.17 -4.48,-37.49 -2.78,-11.2 -6.68,-20.93 -11.18,-28.3 -5.12,-8.39 -10.7,-13.44 -15.78,-13.44 -9.83,0 -18.58,16.4 -28.91,35.73 -14.41,26.97 -31.49,58.98 -63.56,68.28 -17,4.92 -40.2,4.37 -58.01,-2.91 -6.39,-2.61 -12.16,-6.08 -16.78,-10.44 -4.85,-4.58 -8.5,-10.15 -10.41,-16.75 -2.53,-8.71 -1.97,-19.02 2.91,-30.97l0.03 0c2.63,-6.45 2.52,-10.93 0.42,-13.41 -2.46,-2.91 -7.88,-3.92 -15.06,-2.88 -8.49,1.24 -18.87,5.41 -29.69,12.79 -33.86,23.09 -70.61,76.63 -67.71,168.6l0 0.02zm-95.98 241.39c34.83,-97.02 83.58,-232.83 83.36,-241.03 -3.06,-97.3 36.64,-154.49 73.2,-179.42 12.48,-8.51 24.76,-13.37 35.04,-14.87 11.6,-1.69 21.11,0.86 26.49,7.23 5.13,6.06 6.24,14.98 1.61,26.32l0.02 0.01c-3.73,9.14 -4.26,16.66 -2.51,22.71 1.24,4.29 3.68,7.98 6.95,11.06 3.49,3.3 7.93,5.95 12.87,7.97 15.24,6.23 35.14,6.69 49.74,2.46 26.95,-7.81 42.69,-37.28 55.94,-62.1 12.27,-22.97 22.67,-42.46 40.04,-42.46 9.81,0 19.13,7.33 26.57,19.53 5.16,8.45 9.57,19.41 12.67,31.86 3.07,12.33 4.87,26.17 4.87,40.52 0,42.51 -15.68,89.98 -60.97,117.63 -14.41,8.8 -29.52,13.55 -44.81,18.34 -9.81,3.08 -19.72,6.2 -29.24,10.35 -15.01,6.56 -29.06,14.29 -42.17,22.5 -13.15,8.24 -25.51,17.06 -37,25.69l-0.05 0.02c-3.45,2.54 -11.11,46.03 -22.1,108.52 -26.86,152.67 -73.16,415.81 -154.79,507.33 -35.71,40.04 -77.65,48.7 -126.89,4.78 -131.04,-116.87 -293.14,-388.22 -293.61,-389l-0.89 -3.07 -10.57 -348.76 -0.22 -7.35 7.3 0.9c0.28,0.03 98.57,10.96 135.32,109.27 4.14,7.26 11.51,22.01 21.14,41.28l0.03 0c41.22,82.5 124.69,249.57 173.85,265.95 10.51,3.5 19.46,-2.23 25.77,-21.17 4.36,-13.09 17.29,-49.1 33.06,-93.02z"/>
     <g>
      <rect class="fil8" x="451.6" y="9336.73" width="185" height="131.79"/>
      <path class="fil10" d="M451.61 9475.96l185 0 7.45 0 0 -7.45 0 -131.78 0 -7.45 -7.45 0 -185 0 -7.45 0 0 7.45 0 131.78 0 7.45 7.45 0zm177.56 -14.89l-170.11 0 0 -116.89 170.11 0 0 116.89z"/>
      <rect class="fil8" x="1554.87" y="9345.39" width="185" height="131.79"/>
      <path class="fil10" d="M1554.87 9484.63l185 0 7.45 0 0 -7.45 0 -131.78 0 -7.45 -7.45 0 -185 0 -7.44 0 0 7.45 0 131.78 0 7.45 7.44 0zm177.56 -14.89l-170.11 0 0 -116.89 170.11 0 0 116.89z"/>
      <polygon class="fil11" points="1769.29,9367.61 1717.18,6345.34 809.01,6345.34 424.76,9367.61 649.34,9367.61 1270.54,6963.19 1529.48,9367.61 "/>
      <polygon class="fil11" points="431.71,9312.96 424.76,9367.61 649.34,9367.61 663.45,9312.96 "/>
      <path class="fil12" d="M1390.72 4101.18c-18.61,-22.85 -46.96,-37.46 -78.73,-37.46 -41.58,0 -77.31,25.02 -92.99,60.81 -9.16,-4.35 -19.41,-6.79 -30.22,-6.79 -23.17,0 -43.74,11.18 -56.59,28.44 -6.63,-1.36 -13.49,-2.07 -20.52,-2.07 -56.04,0 -101.47,45.43 -101.47,101.47 0,3.13 0.15,6.22 0.43,9.28 -44.81,10.53 -78.18,50.76 -78.18,98.78 0,38.15 21.06,71.39 52.19,88.72 -18.94,14.96 -31.1,38.13 -31.1,64.15 0,43.36 33.76,78.81 76.43,81.53 -5.05,9.71 -7.91,20.76 -7.91,32.46 0,38.94 31.57,70.51 70.5,70.51 14.39,0 27.77,-4.32 38.93,-11.72 1.1,31.46 20.72,56.53 44.76,56.53 4.48,0 8.81,-0.87 12.89,-2.5 11.77,27.06 38.73,45.98 70.12,45.98 33.68,0 62.26,-21.78 72.45,-52.02 13.75,20.26 36.97,33.57 63.29,33.57 38.13,0 69.73,-27.91 75.49,-64.42 6.19,1.62 12.69,2.48 19.39,2.48 42.21,0 76.43,-34.22 76.43,-76.43 0,-5.45 -0.57,-10.76 -1.66,-15.89 23.76,-12.96 39.88,-38.17 39.88,-67.14 0,-19.2 -7.09,-36.74 -18.78,-50.17 26.6,-11.96 45.13,-38.69 45.13,-69.75 0,-25.85 -12.83,-48.7 -32.48,-62.53 40.23,-18.04 69.39,-58.15 43.03,-135.14 -36.28,-105.99 -176.33,-120.65 -250.73,-120.69z"/>
      <path class="fil8" d="M1068.27 4929.21l0 -333.52c-177.25,-31.52 -58.91,-248.35 -10.8,-121.53l0 28.77 0 -178.66c0,-102.85 338.75,-27 471.25,-27l0 432.09c0,0 1.35,136.38 -163.39,71.56l0 136.69 -297.07 -8.41z"/>
      <path class="fil9" d="M1075.72 4965.62l0 -369.92 0 -6.23 -6.17 -1.1c-54.52,-9.69 -79.11,-37.54 -85.95,-66.48 -4.94,-20.91 -0.86,-42.4 7.79,-58.02 7.95,-14.36 19.53,-23.48 30.68,-21.43 9.59,1.76 19.58,11.61 27.96,33.07l0 27.44 14.89 0 0 -28.77 0 -149.89c0,-35.82 52.14,-46.5 122.51,-46.5 59.4,0 131.07,7.87 196.8,15.08 52.45,5.76 101.16,11.1 137.05,11.78l0 424.72c0,0.36 1.26,125.43 -153.23,64.65l-10.15 -3.99 0 10.91 0 172.68 -282.17 -8zm-14.89 -363.78l0 370.99 0 7.21 7.24 0.2 297.07 8.42 7.65 0.22 0 -7.64 0 -169.59c164.73,59.25 163.39,-81.87 163.39,-82.29l0 -432.09 0 -7.45 -7.44 0c-35.99,0 -87.33,-5.63 -142.92,-11.74 -66.26,-7.27 -138.52,-15.2 -198.37,-15.2 -78.94,0 -137.41,14.09 -137.41,61.39l0 120.5c-7.83,-10.01 -16.52,-15.33 -25.29,-16.94 -18.01,-3.3 -35.36,9.02 -46.32,28.82 -10.26,18.54 -15.13,43.96 -9.3,68.6 7.79,32.96 34.28,64.57 91.7,76.57z"/>
      <path class="fil12" d="M1208.43 4173.55c0,0 263.07,-55.5 318.3,72.84 55.22,128.35 -107.96,133.66 -161.3,123.72 -150.57,-28.04 -165.29,-84.44 -156.99,-196.57z"/>
      <path class="fil3" d="M768.62 6456.73c0,0 107.87,-154.46 -4.02,-923.13l-63.24 150.81 -335.68 -180 246.4 -420.98c23.56,-40.26 14.85,-38.56 57.85,-55.17l390.9 -151.62c26.22,33.56 88.61,56.17 157.16,56.17 68.55,0 128.65,-23.2 154.81,-56.86l363.11 97.3c47,12.57 35.7,7.83 57.2,51.14l283.83 571.24 -294.4 127.64 -36.42 -195.75c0,0 19.46,797.86 -9.73,929.21l-967.76 0z"/>
      <path class="fil13" d="M1729.91 5482.84c0.04,0.04 21.22,19.76 16.2,44.68l0 0 0 0c6.53,-32.41 -1.53,-54.9 -1.57,-54.97l-14.62 10.29z"/>
      <path class="fil13" d="M718.79 5415.91c0.15,0.21 61.55,80.17 45.81,117.69l0 0 0 0c19.58,-46.68 -30.89,-127.53 -31.05,-127.77l-14.76 10.07z"/>
      <path class="fil13" d="M803.61 6325.96c3.7,-26.8 6.88,-58.57 9,-96.12 6.6,-1.15 13.36,-1.8 20.37,-1.8 25.37,0 47.48,8.58 70.48,18.07 9.44,3.89 26.09,11.31 36.34,11.31 10.26,0 26.91,-7.41 36.34,-11.31 23,-9.48 45.11,-18.07 70.48,-18.07 25.37,0 47.48,8.58 70.48,18.07 9.43,3.89 26.09,11.31 36.34,11.31 10.26,0 26.91,-7.41 36.34,-11.31 23,-9.48 45.1,-18.07 70.48,-18.07 25.37,0 47.48,8.58 70.48,18.07 9.44,3.89 26.09,11.31 36.34,11.31 10.26,0 26.91,-7.41 36.34,-11.31 23,-9.48 45.11,-18.07 70.48,-18.07 25.37,0 47.48,8.58 70.48,18.07 9.43,3.89 26.08,11.31 36.34,11.31 10.26,0 26.91,-7.42 36.34,-11.31 23,-9.49 45.1,-18.07 70.48,-18.07 22.6,0 42.61,6.81 62.96,15 -0.76,34.32 -1.77,66.35 -3.08,94.96 -7.85,-2.74 -15.65,-5.89 -23.54,-9.14 -9.43,-3.89 -26.08,-11.31 -36.34,-11.31 -10.26,0 -26.91,7.41 -36.34,11.31 -23,9.49 -45.1,18.07 -70.48,18.07 -25.37,0 -47.48,-8.58 -70.48,-18.07 -9.44,-3.9 -26.09,-11.31 -36.34,-11.31 -10.26,0 -26.91,7.41 -36.34,11.31 -23,9.48 -45.11,18.07 -70.48,18.07 -25.37,0 -47.48,-8.58 -70.48,-18.07 -9.44,-3.9 -26.09,-11.31 -36.35,-11.31 -10.26,0 -26.91,7.41 -36.34,11.31 -23,9.48 -45.1,18.07 -70.48,18.07 -25.37,0 -47.48,-8.58 -70.48,-18.07 -9.44,-3.9 -26.09,-11.31 -36.34,-11.31 -10.26,0 -26.91,7.41 -36.34,11.31 -23,9.48 -45.11,18.07 -70.48,18.07 -25.37,0 -47.48,-8.58 -70.48,-18.07 -9.44,-3.9 -26.09,-11.31 -36.34,-11.31 -8.05,0 -20.02,4.56 -29.37,8.41z"/>
      <path class="fil13" d="M1006.89 4898.07l53.93 -21.43c26.23,33.56 88.61,56.18 157.16,56.18 68.55,0 128.65,-23.2 154.81,-56.86l61.54 16.49c-20.2,58.25 -108.7,102.11 -214.82,102.11 -102.67,0 -188.84,-41.06 -212.62,-96.48z"/>
      <polygon class="fil13" points="2039.63,5520.56 2076.93,5595.63 1782.53,5723.27 1768.11,5645.76 "/>
      <path class="fil8" d="M1654.6 5642.48l-304.63 0c-16.07,0 -23.8,14.11 -29.21,29.21l-160.25 446.52c-5.42,15.1 13.17,29.21 29.21,29.21l304.63 0c16.04,0 23.79,-14.09 29.21,-29.21l160.25 -446.52c5.43,-15.12 -13.14,-29.21 -29.21,-29.21z"/>
      <path class="fil9" d="M1654.6 5637.13l-304.63 0c-9.82,0 -17.07,4.28 -22.65,10.83 -5.12,6 -8.68,13.87 -11.58,21.94l-160.25 446.52c-0.88,2.46 -1.29,4.87 -1.29,7.21 0,6.23 2.78,12 7.19,16.74 4.08,4.39 9.66,7.94 15.62,10.08 4.16,1.49 8.52,2.33 12.71,2.33l304.63 0c9.81,0 17.05,-4.27 22.64,-10.82 5.12,-6 8.69,-13.86 11.59,-21.94l160.25 -446.52 0.02 0c0.87,-2.44 1.28,-4.85 1.28,-7.22 0,-6.24 -2.78,-12 -7.18,-16.74 -4.08,-4.4 -9.65,-7.93 -15.61,-10.07 -4.16,-1.49 -8.53,-2.33 -12.73,-2.33zm-304.63 10.69l304.63 0c3.04,0 6.17,0.59 9.14,1.66 4.39,1.57 8.46,4.14 11.4,7.31 2.63,2.83 4.29,6.11 4.29,9.47 0,1.18 -0.2,2.4 -0.65,3.63l0.02 0 -160.25 446.51c-2.52,7.04 -5.55,13.79 -9.66,18.61 -3.65,4.27 -8.31,7.06 -14.54,7.06l-304.63 0c-3.03,0 -6.16,-0.6 -9.12,-1.66 -4.39,-1.58 -8.46,-4.15 -11.41,-7.33 -2.63,-2.83 -4.3,-6.12 -4.3,-9.47 0,-1.21 0.2,-2.43 0.63,-3.62l160.25 -446.52c2.52,-7.02 5.54,-13.78 9.65,-18.6 3.64,-4.28 8.31,-7.07 14.55,-7.07z"/>
      <path class="fil8" d="M457.9 5513.28l-118.58 234.13c0,0 -118.58,249.33 115.54,261.5 234.13,12.16 699.35,97.3 699.35,97.3 0,0 42.57,-42.57 103.38,7.6 60.81,50.17 170.28,-138.35 7.6,-159.63 0,0 -85.14,-12.17 -133.79,56.25l-515.39 -185.48c0,0 -68.41,-3.04 -30.41,-68.41 38.01,-65.37 80.57,-126.19 80.57,-126.19l-208.28 -117.06z"/>
      <path class="fil9" d="M451.27 5509.94l-118.58 234.13 -0.12 0.21c-0.35,0.74 -123.33,259.31 121.91,272.05 233.69,12.14 697.06,96.94 698.39,97.19l3.75 0.69 2.73 -2.64c0.11,-0.1 37.89,-37.92 93.52,7.98 18.34,15.13 40.02,12.36 59.08,-0.69 15.4,-10.54 29.07,-28.06 37.36,-47.93 8.34,-20.01 11.33,-42.61 5.31,-63.19 -8.55,-29.17 -34.72,-53.89 -88.48,-60.92l-0.06 -0.03c-0.25,-0.03 -85.64,-12.22 -137.36,54.8l-510.22 -183.62 -2.18 -0.44c-0.15,-0 -56.14,-2.5 -24.3,-57.27 37.91,-65.21 80.1,-125.5 80.22,-125.67l4.7 -6.71 -7.14 -4.02 -208.28 -117.06 -6.76 -3.79 -3.51 6.93zm-105.22 240.61l114.97 -226.98 194.42 109.28c-12.08,17.61 -45.66,67.33 -76.26,119.97 -41.02,70.56 25.46,78.67 35.3,79.47l514.41 185.13 5.29 1.91 3.26 -4.58c46.02,-64.71 126.61,-53.2 126.84,-53.17l0 -0.02c46.69,6.12 69.09,26.47 76.08,50.33 5,17.09 2.37,36.21 -4.78,53.36 -7.2,17.28 -18.93,32.39 -32.02,41.35 -13.71,9.38 -28.94,11.69 -41.28,1.5 -56.38,-46.51 -98.98,-18.91 -110.27,-9.81 -43.01,-7.8 -473.77,-85.19 -696.79,-96.78 -222.98,-11.58 -109.49,-250.26 -109.18,-250.94l-0.01 -0z"/>
      <polygon class="fil13" points="730.82,5614.15 701.35,5684.41 365.67,5504.41 409.89,5428.86 "/>
      <path class="fil13" d="M768.62 6456.73c0,0 11.34,-16.28 22.85,-64.43l952.78 0c-2.11,28.07 -4.7,50.18 -7.87,64.43l-967.76 0z"/>
      <path class="fil11" d="M1526.52 9454.96l0 238.2 584.36 0c42.98,-78.15 -55.72,-92.52 -106.24,-110.78 -90.28,-32.67 -205.07,-100.27 -236.41,-127.42l-241.7 0z"/>
      <path class="fil11" d="M427.81 9454.96l0 238.2 423.39 0c31.14,-78.15 -40.37,-92.51 -76.98,-110.78 -65.42,-32.66 -90.43,-97.37 -113.14,-124.52l-233.28 -2.91z"/>
      <path class="fil9" d="M1160.7 4465.67c-2.81,2.98 -7.51,3.13 -10.5,0.32 -2.98,-2.81 -3.13,-7.52 -0.32,-10.5 0.17,-0.17 59.2,-63.06 96.41,1.37 2.05,3.55 0.84,8.1 -2.7,10.15 -3.55,2.05 -8.1,0.84 -10.15,-2.7 -27.21,-47.12 -72.61,1.23 -72.74,1.37z"/>
      <path class="fil9" d="M1396.45 4463.97c-2.95,2.84 -7.66,2.75 -10.5,-0.2 -2.84,-2.96 -2.75,-7.66 0.2,-10.5 0.13,-0.13 47.45,-47.44 94.98,0.09 2.91,2.91 2.91,7.62 0,10.52 -2.91,2.91 -7.62,2.91 -10.53,0 -37.03,-37.03 -74.06,-0.02 -74.16,0.09z"/>
      <path class="fil9" d="M1424.98 4500.97c4.68,0 8.91,1.89 11.96,4.93l0 0 -0.01 0.02 0.33 0.31c2.85,3.02 4.61,7.12 4.61,11.62 0,4.68 -1.89,8.92 -4.93,11.96l-0.01 -0.02 -0 0 -0.07 0.07c-3.04,3.01 -7.24,4.87 -11.87,4.87 -4.67,0 -8.9,-1.89 -11.95,-4.94 -3.05,-3.05 -4.94,-7.28 -4.94,-11.95 0,-4.66 1.89,-8.89 4.94,-11.94l0.29 -0.31c3.02,-2.87 7.13,-4.63 11.66,-4.63zm17.2 -0.32l5.24 -5.26c-5.75,-5.74 -13.69,-9.31 -22.44,-9.31 -8.54,0 -16.31,3.39 -22.02,8.9l-0.45 0.41c-5.75,5.75 -9.31,13.7 -9.31,22.47 0,8.77 3.56,16.72 9.31,22.47 5.75,5.75 13.7,9.31 22.47,9.31 8.66,0 16.52,-3.48 22.25,-9.1l0.22 -0.21 -5.27 -5.26 5.26 5.24c5.74,-5.75 9.31,-13.7 9.31,-22.45 0,-8.52 -3.39,-16.28 -8.87,-21.99l-0.44 -0.48 -5.26 5.27z"/>
      <path class="fil9" d="M1299.99 4499.54c-1.88,-3.64 -0.44,-8.13 3.2,-10 3.64,-1.88 8.13,-0.44 10,3.2l45 87.15c1.55,3 3.87,6.87 6.47,11.19l0.02 -0.01 0 0 0 -0 0.16 0.28c8.7,14.46 20.2,33.66 20.2,48.67 0,13.97 -7.87,23.81 -30.82,23.81l-29.5 0c-4.11,0 -7.45,-3.34 -7.45,-7.45 0,-4.11 3.34,-7.44 7.45,-7.44l29.5 0c11.86,0 15.93,-3.69 15.93,-8.92 0,-10.94 -10.27,-28.08 -18.05,-41l-0.17 -0.26 6.38 -3.84 -6.37 3.81c-2.77,-4.6 -5.24,-8.72 -6.95,-12.02l-45 -87.15z"/>
      <path class="fil9" d="M1254.58 4661.88c-0.5,-4.07 2.41,-7.79 6.48,-8.28 4.07,-0.5 7.79,2.41 8.29,6.48 0.02,0.18 7.61,66.47 75.28,44.45 3.9,-1.27 8.1,0.87 9.37,4.77 1.27,3.91 -0.87,8.1 -4.77,9.37 -84.97,27.65 -94.62,-56.55 -94.65,-56.79z"/>
      <path class="fil9" d="M1214.54 4500.97c4.68,0 8.91,1.89 11.96,4.93l0 0 -0.01 0.02 0.33 0.31c2.85,3.02 4.61,7.12 4.61,11.62 0,4.68 -1.89,8.92 -4.93,11.96l-0.01 -0.02 -0 0 -0.07 0.07c-3.04,3.01 -7.24,4.87 -11.87,4.87 -4.67,0 -8.9,-1.89 -11.95,-4.94 -3.05,-3.05 -4.94,-7.28 -4.94,-11.95 0,-4.66 1.89,-8.89 4.94,-11.94l0.29 -0.31c3.02,-2.87 7.13,-4.63 11.66,-4.63zm17.21 -0.32l5.24 -5.26c-5.75,-5.74 -13.7,-9.31 -22.44,-9.31 -8.54,0 -16.31,3.39 -22.02,8.9l-0.45 0.41c-5.75,5.75 -9.31,13.7 -9.31,22.47 0,8.77 3.57,16.72 9.31,22.47 5.75,5.75 13.7,9.31 22.47,9.31 8.66,0 16.52,-3.48 22.26,-9.1l0.22 -0.21 -5.26 -5.26 5.26 5.24c5.75,-5.75 9.31,-13.7 9.31,-22.45 0,-8.52 -3.39,-16.28 -8.87,-21.99l-0.44 -0.48 -5.26 5.27z"/>
     </g>
    </g>
    <rect class="fil14" x="-0" y="9644.44" width="10000" height="355.56"/>
   </g>
  </g>
 </g>
</svg>
